# xmcd
#
# Track frame offsets:
#	150
#	20605
#	39084
#	57603
#	78090
#	100736
#	118208
#	140493
#	162585
#
# Disc length: 2506 seconds
#
# Revision: 0
# Processed by: cddbd v1.4PL0 Copyright (c) Steve Scherf et al.
# Submitted via: EasyCDDAExtractor 4.6.9.1
#
DISCID=7309c809
DTITLE=Louque - So Long
DYEAR=2003
DGENRE=Faya
TTITLE0=Perique
TTITLE1=Whoa Now
TTITLE2=Art
TTITLE3=Kenny The Jet
TTITLE4=Still In Waiting
TTITLE5=Cry, Cry
TTITLE6=Lifeline
TTITLE7=I Did
TTITLE8=Time Will Take
EXTD=
EXTT0=
EXTT1=
EXTT2=
EXTT3=
EXTT4=
EXTT5=
EXTT6=
EXTT7=
EXTT8=
PLAYORDER=
